<?xml version="1.0" encoding="utf-8"?>
<!-- Generator: Adobe Illustrator 25.2.0, SVG Export Plug-In . SVG Version: 6.00 Build 0)  -->
<svg version="1.1" id="Layer_1" xmlns="http://www.w3.org/2000/svg" xmlns:xlink="http://www.w3.org/1999/xlink" x="0px" y="0px"
	 viewBox="0 0 543.14 154.08" style="enable-background:new 0 0 543.14 154.08;" xml:space="preserve">
<style type="text/css">
	.st0{fill:#3C3C3C;}
</style>
<g>
	<path class="st0" d="M27.95,0.54c-11.12,4.66-23.34,17.8-27.2,34.3c-4.89,20.91,15.45,29.75,17.12,26.86
		c1.96-3.41-3.65-4.56-4.8-15.41C11.59,32.28,18.1,16.62,26.3,9.75c1.52-1.28,1.45,0.5,1.45,3.79c0,5.88-0.32,58.62-0.32,69.63
		c0,14.9-0.62,19.6-1.72,24.25c-1.12,4.71-2.92,7.89-1.56,9.12c1.52,1.37,8.03-1.89,11.79-7.15c4.52-6.31,6.1-13.88,6.38-22.1
		c0.34-9.91,0.33-25.64,0.34-34.61c0.01-8.23,0.14-32.32-0.15-46.81C42.46,2.32,32.6-1.41,27.95,0.54z"/>
	<path class="st0" d="M540.7,78.79c-1.61,0-2.35,1.66-2.96,4.46c-2.11,9.73-4.33,11.93-7.2,11.93c-3.2,0-6.07-4.82-6.81-14.46
		c-0.58-7.58-0.49-21.54,0.26-35.43c0.15-2.85-0.63-5.67-8.29-8.46c-3.29-1.2-8.08-2.96-10.46,2.8c-6.73,16.25-9.37,29.16-9.99,34.4
		c-0.03,0.27-0.36,0.33-0.42-0.31c-0.39-4.2-1.28-11.83-1.39-27.86c-0.02-3.13-0.68-5.79-4.13-7.97c-2.24-1.41-9.04-3.92-11.49-0.94
		c-2.12,2.43-4.58,8.98-7.13,16.75c-2.07,6.31-3.52,10.58-3.52,10.58s0.03-17.03,0.05-23.48c0.01-2.44-1.66-3.25-2.17-3.4
		c-2.27-0.66-6.74-1.76-8.63-1.76c-2.34,0-2.91,1.31-2.91,3.21c0,0.25-0.37,22.42-0.37,37.92c0,0.67,0,1.41,0.01,2.19
		c-1.29,7.13-5.49,16.8-10.06,16.8c-4.57,0-6.73-4.04-6.73-22.52c0-10.78,0.33-15.47,0.48-23.26c0.09-4.49,0.27-7.94,0.26-8.72
		c-0.04-2.4-4.18-3.61-6.11-4.06c-1.94-0.45-3.63-0.63-4.94-0.55c-1.86,0.11-3.18,1.33-3.18,3.01c0,0.9,0.01,2.61,0.01,2.61
		c-2.4-3.77-6.26-6.4-8.83-7.16c-6.92-2.05-14.13-0.23-19.58,7.38c-4.33,6.05-6.94,12.91-7.96,22.76c-0.75,7.2-0.5,14.5,0.83,20.68
		c-1.61,6.97-4.61,9.82-7.88,9.82c-4.76,0-8.21-7.77-7.8-21.19c0.26-8.83,2.03-15.03,3.96-24c0.83-3.83,0.16-5.82-1.52-7.74
		c-1.54-1.76-4.82-2.66-9.54-1.55c-3.36,0.79-8.16,1.64-12.55,2.29c0,0,0.26-1.06,0.48-2.92c1.14-9.78-9.49-8.99-12.88-5.86
		c-2.02,1.87-3.4,4.07-3.92,8.02c-0.83,6.28,4.29,9.24,4.29,9.24c-1.68,7.69-5.8,17.73-10.05,24.99c-2.28,3.89-4.02,6.77-6.27,9.84
		c-0.01-1.14-0.01-2.28-0.02-3.42c-0.05-16.16,0.16-28.88,0.26-33.47c0.09-4.49,0.27-7.85,0.26-8.63c-0.03-1.76-1.05-2.42-3.18-3.26
		c-1.89-0.74-4.12-1.26-6.43-1.43c-2.92-0.23-4.68,1.32-4.63,3.15c0.01,0.35,0.01,2.47,0.01,2.47c-2.4-3.77-6.26-6.4-8.83-7.16
		c-6.92-2.05-14.14-0.23-19.58,7.38c-4.33,6.05-7.16,14.55-7.96,22.68c-0.75,7.59-0.61,14.03,0.41,19.46
		c-1.1,5.43-4.26,11.12-7.84,11.12c-4.57,0-7.17-4.04-7.17-22.52c0-10.78,0.32-15.47,0.48-23.26c0.09-4.49,0.27-7.94,0.26-8.72
		c-0.03-2.4-4.18-3.61-6.11-4.06c-2.02-0.47-3.76-0.64-5.1-0.54c-1.77,0.13-3.01,1.71-3.01,2.89c0,1.18,0,2.72,0,2.72
		c-2.4-3.77-6.26-6.4-8.83-7.16c-6.92-2.05-14.09-0.2-19.58,7.38c-3.58,4.95-6.47,10.43-7.96,22.58c-0.43,3.51-0.62,6.8-0.6,9.87
		c-1.43,8.72-7.72,18.77-12.88,18.77c-3.02,0-5.89-5.85-5.89-18.31c0-16.6,1.03-40.24,1.2-42.52c0,0,6.51-0.11,7.77-0.12
		c3.25-0.04,6.19,0.04,10.51-0.18c2.17-0.11,4.26-7.9,2.02-8.86c-1.01-0.44-8.19-0.82-11.03-0.88c-2.39-0.05-9.05-0.55-9.05-0.55
		s0.6-15.69,0.74-17.35c0.12-1.38-1.67-2.09-2.7-2.52c-2.49-1.05-4.72-1.56-7.37-2.1c-3.65-0.75-5.31-0.01-5.63,3.07
		c-0.49,4.68-0.74,18.38-0.74,18.38c-2.68,0-11.83-0.52-14.51-0.52c-2.49,0-5.18,10.71-1.74,10.84c3.96,0.15,10.87,0.29,15.44,0.42
		c0,0-0.2,24.03-0.2,31.45c0,0.79,0,1.55,0.01,2.29c-2.52,13.13-11.39,20.22-11.39,20.22c1.91-8.68-1.98-15.21-9-20.73
		c-2.58-2.03-7.68-5.88-13.39-10.11c0,0,3.3-3.26,6.24-9.81c2.08-4.64,2.17-9.95-2.93-11.12c-8.42-1.94-15.36,4.25-17.43,10.85
		c-1.6,5.11-0.75,8.91,2.39,12.85c0.23,0.29,0.48,0.58,0.74,0.88c-1.9,3.66-4.51,8.6-6.72,12.42
		c-6.14,10.62-10.78,19.02-14.28,19.02c-2.8,0-2.76-8.53-2.76-16.51c0-6.88,0.51-17.23,0.91-27.95c0.13-3.54-1.64-5.56-4.61-7.39
		c-1.8-1.11-5.65-3.29-7.89-3.29c-3.34,0-12.97,0.45-22.08,26.78c-1.15,3.32-3.4,9.36-3.4,9.36l0.19-31.66c0-0.74-0.4-1.46-1.3-1.95
		c-1.53-0.83-5.63-2.53-9.27-2.53c-1.74,0-2.6,0.81-2.6,2.42l-0.32,49.54c0,3.76,0.1,8.16,0.47,10.07c0.37,1.92,0.97,3.49,1.72,4.42
		c0.74,0.93,1.6,1.64,3.02,1.93c1.32,0.27,8.54,1.2,8.91-1.56c0.45-3.31,0.47-6.88,4.26-20.22c5.9-20.77,13.6-30.9,17.21-34.5
		c0.63-0.63,1.36-0.67,1.32,0.36c-0.15,4.55-0.7,15.93-1.06,25.59c-0.98,25.87,3.73,30.66,10.45,30.66c5.14,0,12.4-5.11,20.17-18.05
		c4.85-8.06,9.55-15.97,12.93-21.67c2.36,2.18,5,4.53,7.64,7.04c6.14,5.83,8.16,11.36,6.82,16.62c-1.02,4.02-4.88,8.16-11.73,4.13
		c-2-1.17-2.85-2.08-4.86-3.4c-1.08-0.71-2.73-0.92-3.72-0.18c-2.57,1.94-4.04,4.4-4.88,7.45c-0.81,2.96,2.16,4.53,5.24,5.9
		c2.65,1.18,8.35,2.25,11.98,2.37c14.16,0.47,25.5-6.84,33.4-25.69c1.41,16.28,7.43,25.5,17.88,25.5c6.99,0,13.99-9.03,17.06-17.92
		c0.88,3.62,2.18,6.77,3.86,9.43c8.05,12.76,23.68,10.01,31.52-0.82c2.43-3.35,2.8-4.55,2.8-4.55c1.15,10.23,9.38,13.81,14.1,13.81
		c5.28,0,10.74-2.5,14.56-11.11c0.45,0.93,0.94,1.83,1.47,2.67c8.05,12.76,23.68,10.01,31.53-0.82c0.37-0.51,0.69-0.97,0.97-1.38
		l0.23,6.72c0,0-4.48,4.11-7.22,6.62c-12.11,11.1-21.31,19.52-21.99,29.33c-0.86,12.5,9.27,17.15,16.95,17.75
		c8.14,0.65,15.12-3.85,19.41-10.15c3.77-5.54,6.24-17.47,6.06-29.25c-0.07-4.72-0.19-10.72-0.28-17.15
		c4.25-4.94,9.04-11.18,13.45-18.48c4.81-7.96,9.96-18.65,12.6-26.97c0,0,4.47,0.04,9.25-0.28c1.53-0.1,1.97,0.21,1.68,1.33
		c-0.34,1.35-6.03,23.31-0.84,37.94c3.56,10.02,11.57,13.24,16.33,13.24c5.56,0,10.89-4.2,13.74-10.44c0.34,0.7,0.7,1.37,1.09,1.99
		c8.05,12.76,23.62,10,31.52-0.82c1.78-2.44,2.8-4.55,2.8-4.55c1.7,10.59,9.93,13.86,14.65,13.86c4.91,0,9.57-2.01,13.36-10.97
		c0.16,3.94,0.41,7.16,0.8,8.18c0.24,0.62,1.64,1.4,2.65,1.78c4.49,1.67,9.08,0.88,10.77,0.54c1.18-0.24,2.09-1.18,2.22-3.62
		c0.33-6.39,0.13-17.13,2.06-25.11c3.25-13.39,6.29-18.59,7.72-21.16c0.81-1.44,1.71-1.68,1.75-0.15
		c0.07,3.09,0.22,12.15,1.48,24.32c0.93,8.95,2.16,14.25,3.11,15.92c2.71,4.79,6.06,5.01,8.79,5.01c1.73,0,5.36-0.48,5.04-3.53
		c-0.16-1.49,0.12-10.67,3.33-23.86c2.09-8.62,5.58-16.4,6.84-19.25c0.46-1.05,0.68-0.22,0.67-0.06
		c-0.27,5.93-0.86,25.34,1.56,35.96c3.28,14.38,12.75,15.99,16.06,15.99c7.05,0,12.82-5.37,14.76-19.48
		C543.47,81.41,542.78,78.79,540.7,78.79z M245.32,70.06c-0.4,7.47-1.86,13.72-4.2,18.25c-4.23,8.21-12.6,10.81-16.29-1.05
		c-2.66-8.55-1.75-20.22-0.65-26.52c1.64-9.35,5.76-15.98,12.18-15.35C242.95,46.04,246.16,54.52,245.32,70.06z M309.77,70.17
		c-0.38,7.05-2.21,14.14-4.2,18.14c-4.12,8.27-12.73,10.85-16.29-1.05c-2.44-8.13-1.86-18.65-0.65-25.28
		c1.57-8.6,5.36-16.58,12.18-16.58C307.44,45.4,310.71,52.67,309.77,70.17z M311.46,118.29c-0.09,12.87-2.11,24.15-6.46,27.42
		c-6.16,4.65-14.44,1.16-12.72-8.23c1.52-8.31,8.69-16.79,19.2-27.16C311.47,110.33,311.5,112.69,311.46,118.29z M422.72,70.25
		c-0.36,7.74-2.07,13.8-4.2,18.07c-4.12,8.27-12.67,10.83-16.29-1.05c-1.98-6.48-2.07-17.29-0.65-26.33
		c1.45-9.21,5.49-16.16,12.18-15.53C420.36,46.02,423.45,54.52,422.72,70.25z"/>
</g>
</svg>
