<svg id="Layer_1" data-name="Layer 1" xmlns="http://www.w3.org/2000/svg" viewBox="0 0 543.14 154.08"><path d="M28,.54C16.84,5.19,4.62,18.33.76,34.84-4.13,55.75,16.21,64.59,17.88,61.69c2-3.4-3.65-4.56-4.8-15.4-1.49-14,5-29.67,13.22-36.54,1.52-1.28,1.45.5,1.45,3.79,0,5.87-.32,58.62-.32,69.63,0,14.89-.62,19.6-1.72,24.24s-2.92,7.9-1.56,9.12c1.52,1.37,8-1.89,11.8-7.14,4.51-6.31,6.09-13.88,6.38-22.1.34-9.92.33-25.65.34-34.62,0-8.22.14-32.32-.14-46.8C42.46,2.32,32.6-1.41,28,.54Z" style="fill:#3c3c3c"/><path d="M540.7,78.79c-1.61,0-2.35,1.66-3,4.46-2.11,9.73-4.33,11.93-7.19,11.93-3.2,0-6.07-4.82-6.81-14.47-.58-7.58-.49-21.54.25-35.43.15-2.85-.63-5.67-8.29-8.45-3.29-1.2-8.08-3-10.46,2.79-6.73,16.26-9.37,29.16-10,34.4,0,.27-.36.33-.42-.3a265.53,265.53,0,0,1-1.39-27.86c0-3.13-.68-5.79-4.14-8-2.24-1.42-9-3.92-11.49-.94-2.12,2.43-4.58,9-7.13,16.75-2.07,6.3-3.52,10.57-3.52,10.57s0-17,0-23.48a3.32,3.32,0,0,0-2.16-3.4,46,46,0,0,0-8.64-1.75c-2.34,0-2.91,1.3-2.91,3.21,0,.25-.37,22.42-.37,37.92V79c-1.29,7.13-5.49,16.8-10.05,16.8s-6.73-4-6.73-22.52c0-10.78.32-15.47.48-23.27.09-4.49.27-7.93.26-8.72,0-2.4-4.18-3.61-6.11-4.05a17.94,17.94,0,0,0-5-.55,3.08,3.08,0,0,0-3.18,3c0,.9,0,2.61,0,2.61A17.85,17.85,0,0,0,414,35.1c-6.91-2.05-14.13-.23-19.57,7.39-4.33,6-6.94,12.91-8,22.76a67.7,67.7,0,0,0,.83,20.68c-1.61,7-4.6,9.82-7.88,9.82-4.76,0-8.2-7.76-7.8-21.19.26-8.83,2-15,4-24,.82-3.82.15-5.82-1.52-7.74-1.54-1.76-4.82-2.66-9.54-1.55-3.36.78-8.16,1.63-12.55,2.28a26.18,26.18,0,0,0,.48-2.92c1.14-9.78-9.49-9-12.88-5.86a12,12,0,0,0-3.92,8A9.45,9.45,0,0,0,340,52a95.48,95.48,0,0,1-10,25,105.6,105.6,0,0,1-6.27,9.84c0-1.14,0-2.28,0-3.42-.06-16.16.16-28.88.25-33.46s.28-7.85.27-8.63c0-1.76-1-2.42-3.18-3.26a22.77,22.77,0,0,0-6.43-1.44c-2.92-.22-4.68,1.32-4.63,3.15,0,.35,0,2.47,0,2.47a17.85,17.85,0,0,0-8.83-7.16c-6.92-2.05-14.14-.23-19.58,7.39-4.33,6-7.16,14.55-8,22.68A69.45,69.45,0,0,0,274,84.63c-1.1,5.43-4.27,11.12-7.84,11.12-4.57,0-7.17-4-7.17-22.52,0-10.78.32-15.47.48-23.26.09-4.5.27-7.94.26-8.73,0-2.4-4.18-3.61-6.11-4.05a17.66,17.66,0,0,0-5.11-.54,3.28,3.28,0,0,0-3,2.89v2.72a17.85,17.85,0,0,0-8.83-7.16c-6.91-2.05-14.09-.2-19.57,7.39-3.58,4.95-6.48,10.43-8,22.57a75.26,75.26,0,0,0-.59,9.87c-1.43,8.72-7.73,18.77-12.88,18.77-3,0-5.89-5.84-5.89-18.3,0-16.61,1-40.25,1.21-42.53l7.77-.12c3.24,0,6.18,0,10.51-.18,2.17-.11,4.26-7.9,2-8.86-1-.44-8.19-.82-11-.88-2.39,0-9.05-.55-9.05-.55s.6-15.69.74-17.34c.12-1.38-1.67-2.09-2.7-2.53a36.83,36.83,0,0,0-7.36-2.1c-3.65-.75-5.31,0-5.63,3.06-.49,4.68-.74,18.38-.74,18.38-2.68,0-11.84-.52-14.51-.52-2.5,0-5.18,10.71-1.74,10.84,4,.15,10.87.29,15.44.42,0,0-.2,24-.2,31.45,0,.79,0,1.55,0,2.29a36.3,36.3,0,0,1-11.4,20.22c1.91-8.69-2-15.21-9-20.73-2.58-2-7.68-5.89-13.39-10.11a34.5,34.5,0,0,0,6.24-9.81c2.07-4.64,2.16-9.95-2.94-11.12-8.41-1.94-15.36,4.25-17.43,10.85-1.6,5.11-.75,8.91,2.4,12.85.23.29.48.58.73.88-1.9,3.66-4.51,8.6-6.72,12.42-6.14,10.62-10.78,19-14.28,19-2.8,0-2.76-8.53-2.76-16.51,0-6.89.5-17.24.91-27.95.13-3.55-1.64-5.56-4.61-7.39-1.8-1.11-5.65-3.3-7.88-3.3-3.34,0-13,.46-22.08,26.79-1.15,3.32-3.4,9.36-3.4,9.36L69.07,40a2.21,2.21,0,0,0-1.31-1.95,22.48,22.48,0,0,0-9.27-2.54c-1.74,0-2.6.81-2.6,2.42l-.32,49.54A73.11,73.11,0,0,0,56,97.58,10.49,10.49,0,0,0,57.76,102a4.89,4.89,0,0,0,3,1.93c1.32.27,8.53,1.2,8.91-1.56.45-3.31.47-6.89,4.26-20.22,5.9-20.77,13.6-30.91,17.21-34.5.63-.63,1.36-.67,1.32.36-.15,4.55-.69,15.93-1.06,25.59-1,25.87,3.73,30.67,10.45,30.67,5.14,0,12.4-5.12,20.17-18.06,4.85-8.06,9.55-16,12.93-21.66,2.36,2.18,5,4.52,7.64,7,6.14,5.83,8.16,11.37,6.82,16.62-1,4-4.87,8.16-11.73,4.13-2-1.17-2.85-2.08-4.86-3.4a3.47,3.47,0,0,0-3.72-.18,13.28,13.28,0,0,0-4.87,7.45c-.82,3,2.15,4.53,5.23,5.9a40.56,40.56,0,0,0,12,2.37c14.16.47,25.5-6.83,33.39-25.69,1.42,16.28,7.43,25.5,17.89,25.5,7,0,14-9,17.05-17.92a31.67,31.67,0,0,0,3.86,9.44c8.06,12.76,23.68,10,31.53-.82A20.36,20.36,0,0,0,248,90.43c1.15,10.23,9.39,13.8,14.11,13.8,5.28,0,10.73-2.5,14.56-11.1a26.39,26.39,0,0,0,1.47,2.67c8.05,12.76,23.68,10,31.52-.82.37-.51.69-1,1-1.39l.24,6.72-7.23,6.63c-12.11,11.1-21.31,19.52-22,29.32-.86,12.51,9.27,17.15,16.95,17.76,8.14.65,15.12-3.85,19.41-10.15,3.77-5.55,6.24-17.47,6.06-29.26-.08-4.72-.19-10.71-.29-17.15A136.63,136.63,0,0,0,337.21,79a139.72,139.72,0,0,0,12.6-27s4.47,0,9.25-.28c1.53-.1,2,.21,1.68,1.33-.34,1.36-6,23.32-.84,37.94,3.56,10,11.58,13.24,16.33,13.24,5.57,0,10.89-4.2,13.74-10.44a20,20,0,0,0,1.1,2c8.05,12.76,23.62,10,31.52-.82a32.29,32.29,0,0,0,2.79-4.55c1.7,10.58,9.94,13.86,14.65,13.86,4.92,0,9.58-2,13.36-11,.16,3.94.41,7.16.8,8.18.24.62,1.64,1.4,2.65,1.78a20.3,20.3,0,0,0,10.78.53c1.17-.23,2.09-1.18,2.21-3.61.33-6.39.13-17.13,2.07-25.11,3.25-13.39,6.28-18.59,7.72-21.16.81-1.44,1.72-1.67,1.75-.15.07,3.09.22,12.15,1.48,24.32.93,9,2.16,14.25,3.11,15.92,2.71,4.79,6.06,5,8.79,5,1.73,0,5.36-.48,5-3.53-.16-1.49.12-10.67,3.33-23.86A115.9,115.9,0,0,1,510,52.4c.46-1,.68-.22.67-.06-.26,5.94-.86,25.34,1.56,36,3.28,14.38,12.75,16,16.06,16,7,0,12.82-5.37,14.76-19.48C543.47,81.41,542.78,78.79,540.7,78.79ZM245.32,70.06c-.4,7.47-1.86,13.72-4.2,18.25-4.23,8.21-12.6,10.81-16.29-1-2.67-8.55-1.76-20.21-.65-26.51,1.64-9.35,5.76-16,12.18-15.35C243,46,246.16,54.52,245.32,70.06Zm64.45.11c-.37,7-2.2,14.14-4.2,18.14-4.11,8.27-12.72,10.85-16.29-1-2.44-8.13-1.85-18.65-.65-25.28,1.57-8.6,5.36-16.58,12.18-16.58C307.44,45.4,310.71,52.67,309.77,70.17Zm1.69,48.12c-.09,12.87-2.12,24.15-6.46,27.43-6.16,4.64-14.44,1.16-12.72-8.23,1.51-8.31,8.69-16.8,19.19-27.16C311.47,110.33,311.5,112.69,311.46,118.29Zm111.26-48a45.48,45.48,0,0,1-4.2,18.06c-4.12,8.27-12.67,10.83-16.29-1-2-6.47-2.07-17.29-.65-26.33,1.45-9.21,5.49-16.16,12.18-15.53S423.45,54.52,422.72,70.25Z" style="fill:#3c3c3c"/></svg>